<?xml version="1.0" standalone="no"?><!DOCTYPE svg PUBLIC "-//W3C//DTD SVG 1.1//EN" "http://www.w3.org/Graphics/SVG/1.1/DTD/svg11.dtd"><svg t="1585634560852" class="icon" viewBox="0 0 1024 1024" version="1.1" xmlns="http://www.w3.org/2000/svg" p-id="775" xmlns:xlink="http://www.w3.org/1999/xlink" width="200" height="200"><defs><style type="text/css"></style></defs><path d="M1004.8 396.8c-12.8-38.4-38.4-57.6-70.4-64l-236.8-38.4-102.4-217.6c-12.8-32-51.2-51.2-83.2-51.2-38.4 0-64 19.2-83.2 51.2l-102.4 217.6-236.8 44.8c-32 6.4-57.6 25.6-70.4 57.6-12.8 32-6.4 57.6 25.6 96l166.4 153.6-44.8 230.4c-6.4 38.4 6.4 70.4 32 89.6 19.2 12.8 38.4 19.2 51.2 19.2 12.8 0 32-6.4 38.4-12.8l217.6-108.8 217.6 108.8c12.8 6.4 32 12.8 38.4 12.8 19.2 0 38.4-6.4 51.2-19.2 32-25.6 38.4-51.2 32-89.6l-44.8-230.4 166.4-160c38.4-25.6 51.2-57.6 38.4-89.6z m-51.2 64l-185.6 179.2 44.8 249.6c0 12.8-6.4 38.4-19.2 51.2-6.4 6.4-19.2 6.4-25.6 6.4-6.4 0-12.8 0-25.6-6.4l-230.4-121.6-236.8 121.6h-6.4c-6.4 0-6.4 6.4-12.8 6.4s-19.2 0-32-6.4-25.6-32-25.6-44.8l51.2-256-179.2-172.8c-12.8-12.8-12.8-38.4-12.8-51.2 6.4-19.2 25.6-32 38.4-38.4l256-44.8 115.2-230.4c6.4-19.2 25.6-32 44.8-32 12.8 0 38.4 12.8 44.8 32l115.2 230.4 256 44.8c12.8 0 32 12.8 38.4 32 6.4 19.2 6.4 32-12.8 51.2z" p-id="776" fill="#26a2ff"></path><path d="M1017.6 390.4c-12.8-44.8-44.8-70.4-83.2-76.8l-224-38.4-102.4-204.8c-12.8-38.4-57.6-64-96-64-44.8 0-76.8 19.2-96 64l-102.4 204.8-224 44.8c-38.4 6.4-70.4 32-83.2 70.4-12.8 38.4-6.4 70.4 25.6 108.8l160 153.6-44.8 217.6c-6.4 44.8 6.4 83.2 44.8 102.4 19.2 12.8 38.4 19.2 64 19.2 12.8 0 38.4-6.4 51.2-12.8l204.8-108.8 204.8 108.8c12.8 6.4 32 12.8 51.2 12.8 19.2 0 38.4-6.4 64-19.2 32-25.6 51.2-64 38.4-102.4l-44.8-217.6 166.4-160c25.6-25.6 38.4-64 25.6-102.4z m-204.8 256l44.8 230.4c6.4 38.4-6.4 64-32 89.6-19.2 12.8-38.4 19.2-51.2 19.2-12.8 0-32-6.4-38.4-12.8l-217.6-108.8-217.6 108.8c-12.8 6.4-32 12.8-38.4 12.8-19.2 0-38.4-6.4-51.2-19.2-25.6-19.2-38.4-51.2-32-89.6l44.8-230.4-166.4-153.6c-25.6-32-32-64-25.6-96 12.8-32 38.4-51.2 70.4-57.6l236.8-44.8 102.4-217.6c19.2-32 44.8-51.2 83.2-51.2 32 0 70.4 25.6 83.2 51.2l102.4 217.6 236.8 38.4c32 6.4 57.6 25.6 70.4 64 12.8 25.6 0 64-25.6 89.6l-179.2 160z" p-id="777" fill="#26a2ff"></path><path d="M928 384l-256-44.8-115.2-230.4c-6.4-12.8-32-32-44.8-32-19.2 0-38.4 12.8-44.8 32l-115.2 230.4-256 44.8c-12.8 6.4-25.6 12.8-38.4 38.4 0 12.8 0 38.4 12.8 51.2l179.2 172.8-51.2 256c0 12.8 6.4 38.4 25.6 44.8 6.4 6.4 25.6 6.4 32 6.4 6.4 0 6.4 0 12.8-6.4h6.4l236.8-121.6 230.4 121.6c6.4 6.4 19.2 6.4 25.6 6.4 6.4 0 19.2 0 25.6-6.4 12.8-12.8 19.2-38.4 19.2-51.2l-44.8-249.6 185.6-179.2c19.2-19.2 19.2-32 12.8-44.8-6.4-25.6-19.2-38.4-38.4-38.4z m12.8 57.6l-192 185.6v6.4l44.8 256c0 12.8-6.4 25.6-19.2 38.4h-12.8c-6.4 0-12.8 0-12.8-6.4l-243.2-128-243.2 121.6c-6.4 6.4-6.4 6.4-12.8 6.4-12.8 0-19.2 0-19.2-6.4-6.4-6.4-12.8-19.2-12.8-25.6l51.2-256v-6.4l-185.6-172.8c-6.4-6.4-6.4-6.4-6.4-12.8v-19.2c6.4-12.8 12.8-19.2 25.6-25.6l262.4-44.8 115.2-243.2c0-6.4 12.8-19.2 32-19.2 12.8 0 25.6 12.8 32 19.2l115.2 236.8v6.4l268.8 44.8c6.4 0 19.2 6.4 25.6 19.2 0 12.8 0 19.2-12.8 25.6z" p-id="778" fill="#26a2ff"></path></svg>