<?xml version="1.0" standalone="no"?><!DOCTYPE svg PUBLIC "-//W3C//DTD SVG 1.1//EN" "http://www.w3.org/Graphics/SVG/1.1/DTD/svg11.dtd"><svg t="1585635831236" class="icon" viewBox="0 0 1024 1024" version="1.1" xmlns="http://www.w3.org/2000/svg" p-id="2262" xmlns:xlink="http://www.w3.org/1999/xlink" width="200" height="200"><defs><style type="text/css"></style></defs><path d="M874.140686 556.503194H479.15707a33.412941 33.412941 0 0 1 0-66.825882h403.514579l-83.887809-85.025271a33.811052 33.811052 0 0 1 0-47.204665 32.872646 32.872646 0 0 1 46.635935 0l122.845876 124.552069a30.569286 30.569286 0 0 1 17.061927 9.099694 45.242544 45.242544 0 0 1 0 55.166898 30.569286 30.569286 0 0 1-17.061927 9.099695l-122.845876 124.552069a32.872646 32.872646 0 0 1-46.635935 0 33.811052 33.811052 0 0 1 0-47.204666zM775.465873 200.477645V89.006387a88.295473 88.295473 0 0 0-87.58456-89.006387H116.875482A88.352347 88.352347 0 0 0 29.006556 89.006387v845.70286a88.352347 88.352347 0 0 0 87.868926 89.006388h571.005831a88.295473 88.295473 0 0 0 87.58456-89.006388v-111.186892a32.84421 32.84421 0 1 0-65.68842 0v89.006387a44.304138 44.304138 0 0 1-43.79228 44.361011H138.487256a43.70697 43.70697 0 0 1-43.507914-44.361011V111.186893a44.048209 44.048209 0 0 1 43.507914-44.361011H665.985173a44.105082 44.105082 0 0 1 43.79228 44.361011v89.290752a32.84421 32.84421 0 1 0 65.68842 0z m0 0" p-id="2263" fill="#26a2ff"></path></svg>