<?xml version="1.0" standalone="no"?><!DOCTYPE svg PUBLIC "-//W3C//DTD SVG 1.1//EN" "http://www.w3.org/Graphics/SVG/1.1/DTD/svg11.dtd"><svg t="1597905683721" class="icon" viewBox="0 0 1024 1024" version="1.1" xmlns="http://www.w3.org/2000/svg" p-id="14886" xmlns:xlink="http://www.w3.org/1999/xlink" width="200" height="200"><defs><style type="text/css"></style></defs><path d="M974.997502 258.733898C859.248126 142.984523 695.837243 68.087868 512 68.087868S171.56066 142.984523 49.002498 258.733898L14.958564 204.263604c129.366949-122.558162 306.395406-204.263604 497.041436-204.263604s367.674487 74.896655 497.041436 204.263604l-34.043934 54.470294zM512 204.263604c156.602096 0 292.777832 68.087868 388.100847 177.028456l-40.852721 61.279082C777.542685 340.43934 654.984523 272.351472 512 272.351472S246.457315 340.43934 164.751874 442.571142l-40.852721-61.279082C219.222168 272.351472 355.397904 204.263604 512 204.263604z m0 204.263604c115.749375 0 217.881177 61.279081 265.542685 156.602096l-40.852721 68.087868C702.64603 544.702943 614.131802 476.615075 512 476.615075S321.35397 544.702943 287.310036 633.217172l-40.852721-68.087868C300.927609 469.806289 396.250625 408.527208 512 408.527208z m-163.410883 279.160258c13.617574-13.617574 34.043934-13.617574 47.661508 6.808787l115.749375 108.940589 115.749375-108.940589c13.617574-20.42636 34.043934-20.42636 47.661508-6.808787 13.617574 13.617574 6.808787 40.852721-6.808787 61.279081l-108.940588 102.131802L668.602096 953.230151c13.617574 20.42636 13.617574 40.852721 6.808787 61.279081-13.617574 13.617574-34.043934 13.617574-47.661508-6.808787l-115.749375-108.940588-115.749375 108.940588c-13.617574 20.42636-34.043934 20.42636-47.661508 6.808787-13.617574-13.617574-6.808787-40.852721 6.808787-61.279081l108.940588-102.131802L355.397904 748.966547c-13.617574-20.42636-20.42636-47.661508-6.808787-61.279081z" fill="#f12d13" p-id="14887"></path></svg>