<?xml version="1.0" standalone="no"?><!DOCTYPE svg PUBLIC "-//W3C//DTD SVG 1.1//EN" "http://www.w3.org/Graphics/SVG/1.1/DTD/svg11.dtd"><svg t="1585635957937" class="icon" viewBox="0 0 1024 1024" version="1.1" xmlns="http://www.w3.org/2000/svg" p-id="2256" xmlns:xlink="http://www.w3.org/1999/xlink" width="200" height="200"><defs><style type="text/css"></style></defs><path d="M817.767849 814.452535a29.181041 29.181041 0 0 1-28.697535-28.754418 26.735067 26.735067 0 0 1 9.186624-20.961431l0.568831-0.511948 0.654156-0.426623a29.52234 29.52234 0 0 0 3.725845-2.844156l0.455065-0.426624 0.511948-0.36974a309.273532 309.273532 0 0 0 51.450783-44.937666 342.919898 342.919898 0 0 0 42.946757-57.821693 294.142622 294.142622 0 0 0 28.896626-67.178967 274.773919 274.773919 0 0 0-29.067275-216.66781 348.835743 348.835743 0 0 0-96.900398-104.181437 28.754418 28.754418 0 0 1 16.268573-52.218705 24.772599 24.772599 0 0 1 17.064936 6.228701l0.654156 0.54039 0.682598 0.483507a403.016916 403.016916 0 0 1 63.709096 55.94455 372.129381 372.129381 0 0 1 50.625978 69.112992 359.558211 359.558211 0 0 1 33.049094 79.636371 320.251974 320.251974 0 0 1 11.86013 86.832085 324.233793 324.233793 0 0 1-11.86013 87.827539 356.514964 356.514964 0 0 1-33.504159 79.949228 384.330811 384.330811 0 0 1-115.614945 125.484166l-0.341298 0.227532-0.341299 0.227533a25.000132 25.000132 0 0 1-15.870391 4.977273z m-53.327927-157.054299a28.24247 28.24247 0 0 1-21.388053-9.129741 30.261821 30.261821 0 0 1-8.959092-22.212859 32.138964 32.138964 0 0 1 2.19-11.376624l2.701948-7.224157 0.312858-0.568831c1.934026-3.441429 4.038702-6.825975 6.314026-10.068312 4.579091-6.541559 9.072858-13.395975 13.395975-20.335716a122.298711 122.298711 0 0 0 11.717923-25.597405 111.718451 111.718451 0 0 0 4.92039-35.011561 108.077931 108.077931 0 0 0-4.92039-34.129873 136.519492 136.519492 0 0 0-11.604157-25.881821 334.472755 334.472755 0 0 0-13.509741-21.046755 75.455461 75.455461 0 0 1-9.271949-17.719092V416.498216a28.214028 28.214028 0 0 1-1.990909-11.035325 30.318704 30.318704 0 0 1 8.959092-22.212859 28.24247 28.24247 0 0 1 21.388053-9.129741 20.108183 20.108183 0 0 1 14.533638 5.147922 124.175854 124.175854 0 0 1 15.045586 17.320911 277.930932 277.930932 0 0 1 31.115067 54.380264 167.122611 167.122611 0 0 1 11.177533 64.789875 174.062352 174.062352 0 0 1-11.717923 65.41559 228.840798 228.840798 0 0 1-30.404028 53.498576l-0.170649 0.199091a121.161049 121.161049 0 0 1-15.074028 17.349352 19.909093 19.909093 0 0 1-14.505196 5.147922z m0-8.532468a19.653119 19.653119 0 0 1-15.216235-6.484676 21.928443 21.928443 0 0 1-6.541559-16.268573 23.69182 23.69182 0 0 1 1.621169-8.532468l2.474416-6.626884a113.766243 113.766243 0 0 1 5.858962-9.328832c4.664416-6.683767 9.271949-13.651949 13.651949-20.762339a131.684426 131.684426 0 0 0 12.57117-27.360782 120.279361 120.279361 0 0 0 5.347013-37.713509 116.866373 116.866373 0 0 0-5.347013-36.746497 143.032609 143.032609 0 0 0-12.372079-27.502989c-4.436883-7.537014-9.101299-14.818053-13.879482-21.615586a67.634032 67.634032 0 0 1-8.219611-15.728183l-0.199091-0.511948-0.227532-0.54039a19.710002 19.710002 0 0 1-1.279871-7.65078 21.928443 21.928443 0 0 1 6.541559-16.268573 19.653119 19.653119 0 0 1 15.216235-6.484676 11.376624 11.376624 0 0 1 8.532469 2.844157 119.255464 119.255464 0 0 1 13.993247 16.126365 270.194827 270.194827 0 0 1 30.148055 52.67377 158.447935 158.447935 0 0 1 10.523377 61.462213 164.961053 164.961053 0 0 1-11.12065 62.201693 219.142226 219.142226 0 0 1-29.237924 51.507667v0.199091l-0.17065 0.227532a113.766243 113.766243 0 0 1-14.021689 16.097924 11.376624 11.376624 0 0 1-8.532468 2.844156z m0 6.114935a25.597405 25.597405 0 0 1-19.596235-8.361819 27.958054 27.958054 0 0 1-8.276494-20.506365 29.408574 29.408574 0 0 1 2.047792-10.665585l2.645065-7.025066 0.312857-0.597272a109.528451 109.528451 0 0 1 6.058053-9.64169c4.635974-6.626884 9.158183-13.509741 13.4813-20.506365a124.431828 124.431828 0 0 0 11.945455-26.080911 114.050659 114.050659 0 0 0 5.062598-35.779484 111.34871 111.34871 0 0 0-5.034156-34.81247 138.652609 138.652609 0 0 0-11.83169-26.336885c-4.38-7.394806-8.959092-14.533638-13.623507-21.217405a74.260915 74.260915 0 0 1-8.987533-17.064936v-0.739481a25.597405 25.597405 0 0 1-1.791819-10.068312 27.958054 27.958054 0 0 1 8.276494-20.506366 25.597405 25.597405 0 0 1 19.596236-8.361818 17.605326 17.605326 0 0 1 12.827144 4.465325 124.545595 124.545595 0 0 1 14.76117 17.064936 276.679503 276.679503 0 0 1 30.830652 53.896758 164.961053 164.961053 0 0 1 10.978442 63.822862 170.990663 170.990663 0 0 1-11.547273 64.50546 226.281058 226.281058 0 0 1-30.034289 52.901303l-0.227532 0.312857a122.554685 122.554685 0 0 1-14.76117 17.064937 17.49156 17.49156 0 0 1-12.827144 4.493766zM545.923411 1023.896188c-2.844156 0-5.688312 0-8.532468-0.284415a119.227023 119.227023 0 0 1-67.292733-36.120783 7902.800522 7902.800522 0 0 0-103.86858-92.435072c-36.774938-32.423379-71.103902-62.201693-102.076762-88.766111a15483.471926 15483.471926 0 0 0-100.341826-83.81728c-3.128572 0-6.285585 0.227532-9.385715 0.227533a198.010146 198.010146 0 0 1-19.909093 0.995454h-16.410781a88.453254 88.453254 0 0 1-63.993511-24.687275 82.480526 82.480526 0 0 1-25.768054-60.381433v-244.768072a91.411176 91.411176 0 0 1 25.597404-66.041304 86.263254 86.263254 0 0 1 64.13572-26.763509H161.96234a16497.470451 16497.470451 0 0 1 152.930272-128.299881c20.677015-17.463118 41.211822-34.613379 61.007148-50.938835s38.026367-31.427925 53.868317-44.767017 29.806756-25.000132 40.813639-34.129873c15.017144-12.400521 19.31182-15.785066 21.388054-17.32091l0.312857-0.227533A108.305463 108.305463 0 0 1 554.171463 0a58.3052 58.3052 0 0 1 6.314027 0.341299 67.292733 67.292733 0 0 1 50.48377 31.285717 129.7504 129.7504 0 0 1 18.629223 49.374549 273.465607 273.465607 0 0 1 4.294675 45.933121v783.593441a159.27274 159.27274 0 0 1-8.248052 48.919485 102.560268 102.560268 0 0 1-29.977405 46.644159 73.521435 73.521435 0 0 1-49.658966 17.918184zM173.99312 660.01486a30.915977 30.915977 0 0 1 19.624677 7.053507c36.746497 30.347145 73.948058 61.348447 110.381698 92.122215l0.170649 0.199091c31.285717 26.735067 65.700005 56.883122 102.702476 89.249618s71.900266 63.510005 104.664944 93.089228a6.911299 6.911299 0 0 0 0.398182 0.568831 60.4952 60.4952 0 0 0 31.001301 19.624677 11.376624 11.376624 0 0 0 3.014805 0.284416 14.362988 14.362988 0 0 0 9.357274-2.844156 43.430263 43.430263 0 0 0 11.575715-19.055846 97.611437 97.611437 0 0 0 5.261689-29.863639V126.82092a211.178589 211.178589 0 0 0-3.412987-35.352861 69.198317 69.198317 0 0 0-9.414157-26.080911 6.285585 6.285585 0 0 0-5.347014-3.64052 59.272213 59.272213 0 0 0-25.369872 13.395976c-1.109221 0.853247-5.147923 4.01026-19.084287 15.50065-10.893118 8.987533-24.459742 20.307274-40.358575 33.674808S434.859116 153.015597 414.807816 169.511702c-19.624677 16.183248-40.017276 33.16286-60.523642 50.512212l-0.312857 0.255974a17395.342083 17395.342083 0 0 0-161.036117 135.182739 30.80221 30.80221 0 0 1-19.909093 7.337922H117.963246a25.597405 25.597405 0 0 0-19.909093 8.048962 28.441561 28.441561 0 0 0-7.906754 17.520002 30.716886 30.716886 0 0 1-0.284415 14.22078v236.064954a20.762339 20.762339 0 0 0 7.081948 16.069482 27.958054 27.958054 0 0 0 21.046755 7.252598h16.410781a130.83118 130.83118 0 0 0 14.960261-0.796363 33.845457 33.845457 0 0 1 3.412987-0.17065c6.171819 0 12.372079-0.284416 18.430131-0.824805h2.844156z" p-id="2257" fill="#26a2ff"></path></svg>