<?xml version="1.0" standalone="no"?><!DOCTYPE svg PUBLIC "-//W3C//DTD SVG 1.1//EN" "http://www.w3.org/Graphics/SVG/1.1/DTD/svg11.dtd"><svg t="1585634565419" class="icon" viewBox="0 0 1024 1024" version="1.1" xmlns="http://www.w3.org/2000/svg" p-id="963" xmlns:xlink="http://www.w3.org/1999/xlink" width="200" height="200"><defs><style type="text/css"></style></defs><path d="M688.028165 744.730319H289.417241c-18.245619 0-33.419272 10.379523-33.419272 23.272474s14.708203 23.272473 33.419272 23.272473h398.610924c18.245619 0 33.419272-10.379523 33.419272-23.272473s-15.173653-23.272473-33.419272-23.272474z" p-id="964" fill="#26a2ff"></path><path d="M679.650075 0.104261v1.023989c-4.189045 0-22.527754-1.535983-68.653797-1.023989H207.125775C131.117877 0.104261 69.818182 60.519602 69.818182 134.758792v754.586677C69.818182 963.584659 131.117877 1024 207.125775 1024h609.738803c76.007898 0 137.307593-60.415341 137.307593-134.654531V269.366778L679.650075 0.150806z m207.962822 271.357039l-139.867565-2.047977h4.701039c-31.929833 0-76.985342-30.254215-76.985342-67.071269l-1.070533-139.26248 213.222401 208.381726z m7.354101 627.612063c0 37.887587-31.417839 69.119246-70.189779 69.119246H199.213134c-38.771941 0-70.18978-30.719665-70.18978-69.119246V125.542892c0-37.887587 31.417839-69.119246 70.18978-69.119246h412.853678a4386.395785 4386.395785 0 0 0 1.023989 137.726498c0 76.287168 62.882223 137.726498 140.938099 137.726497h140.938098v567.196722z" p-id="965" fill="#26a2ff"></path><path d="M688.028165 513.727748H289.417241c-18.245619 0-33.419272 10.007164-33.419272 22.38812 0 12.427501 14.708203 22.434664 33.419272 22.434664h398.610924c18.245619 0 33.419272-10.007164 33.419272-22.434664 0-12.380956-15.173653-22.388119-33.419272-22.38812zM524.422677 325.825798h-247.619117C265.074234 325.825798 255.997969 335.832962 255.997969 348.260463c0 12.380956 9.12281 22.388119 20.759046 22.388119h247.665662c11.636237 0 20.759046-10.007164 20.759046-22.388119 0-12.427501-9.12281-22.434664-20.759046-22.434665z" p-id="966" fill="#26a2ff"></path></svg>