<?xml version="1.0" standalone="no"?><!DOCTYPE svg PUBLIC "-//W3C//DTD SVG 1.1//EN" "http://www.w3.org/Graphics/SVG/1.1/DTD/svg11.dtd"><svg t="1586328148290" class="icon" viewBox="0 0 1024 1024" version="1.1" xmlns="http://www.w3.org/2000/svg" p-id="1567" xmlns:xlink="http://www.w3.org/1999/xlink" width="200" height="200"><defs><style type="text/css"></style></defs><path d="M762.22546 207.861798a28.200123 28.200123 0 0 1-8.215784 19.947331 27.879387 27.879387 0 0 1-19.836307 8.22812H289.151745a28.187787 28.187787 0 0 1 0-56.363238h445.046296a27.879387 27.879387 0 0 1 19.811635 8.22812 28.212459 28.212459 0 0 1 8.191112 19.959667zM699.361144 374.126565a28.261803 28.261803 0 0 1-8.191112 19.959667 27.867051 27.867051 0 0 1-19.811635 8.228119H324.02565a28.187787 28.187787 0 0 1 0-56.363237h347.332747a28.126107 28.126107 0 0 1 27.953403 28.175451zM628.749813 518.359214a40.708839 40.708839 0 0 1-4.749365 19.947331c-3.059331 5.292149-7.204231 8.252792-11.509499 8.22812H410.871173c-8.980617 0-16.2712-12.607404-16.271199-28.175451s7.290583-28.187787 16.271199-28.187787h201.656784c8.980617 0.074016 16.221855 12.693756 16.221856 28.187787zM740.069983 902.835693h-0.320736a24.449975 24.449975 0 0 1-17.566481-7.79636l-105.485237-113.281596a24.74604 24.74604 0 0 1 1.134913-34.824561 24.388295 24.388295 0 0 1 34.614849 1.147249l88.066788 94.580202L906.754174 673.077474a24.388295 24.388295 0 0 1 34.627185-0.246721 24.74604 24.74604 0 0 1 0.24672 34.849234l-184.127312 187.754098a24.425303 24.425303 0 0 1-17.430784 7.401608z" p-id="1568"></path><path d="M821.993437 1024H201.997822C131.756571 1024 74.603829 966.514185 74.603829 895.865846V128.134154C74.603829 57.485815 131.756571 0 201.997822 0h619.995615c70.241251 0 127.381657 57.485815 127.381657 128.134154v462.958185a25.190136 25.190136 0 1 1-50.380272 0V128.134154c0-42.707273-34.540833-77.457818-77.001385-77.457818H201.997822c-42.460552 0-77.001385 34.750545-77.001385 77.457818V895.865846c0 42.707273 34.540833 77.457818 77.001385 77.457818h619.995615c71.339156 0 77.001385-17.714513 77.001385-40.856871a25.190136 25.190136 0 1 1 50.380272 0c0 45.149803-23.771495 66.787168-43.706489 76.976713-25.23948 12.903468-57.979255 14.556494-83.675168 14.556494z" p-id="1569"></path></svg>