<?xml version="1.0" standalone="no"?><!DOCTYPE svg PUBLIC "-//W3C//DTD SVG 1.1//EN" "http://www.w3.org/Graphics/SVG/1.1/DTD/svg11.dtd"><svg t="1591092088331" class="icon" viewBox="0 0 1024 1024" version="1.1" xmlns="http://www.w3.org/2000/svg" p-id="4048" xmlns:xlink="http://www.w3.org/1999/xlink" width="200" height="200"><defs><style type="text/css"></style></defs><path d="M227.1 737h-80c-44.2 0-80-35.8-80-80V367c0-44.2 35.8-80 80-80h80v450zM548.3 837l-270-100V287l270-100c33.1 0 60 26.9 60 60v530c0 33.1-26.9 60-60 60z" fill="#FFAF23" p-id="4049"></path><path d="M754.7 682.8l-19.2-17.5c83.8-91.8 83.5-229-0.7-305.7l17.5-19.2c46.1 42 71.6 100.9 71.9 165.8 0.4 64.4-24.3 127.1-69.5 176.6z" fill="#F0BF67" p-id="4050"></path><path d="M743.6 350m-13 0a13 13 0 1 0 26 0 13 13 0 1 0-26 0Z" fill="#F0BF67" p-id="4051"></path><path d="M745.2 674m-13 0a13 13 0 1 0 26 0 13 13 0 1 0-26 0Z" fill="#F0BF67" p-id="4052"></path><path d="M887.3 682.8l-19.2-17.5c40.7-44.7 63-101.1 62.8-159-0.3-57.5-22.8-109.6-63.4-146.7l17.5-19.2c46.1 42 71.6 100.9 71.9 165.8 0.3 64.4-24.4 127.1-69.6 176.6z" fill="#FFAF23" p-id="4053"></path><path d="M876.2 350m-13 0a13 13 0 1 0 26 0 13 13 0 1 0-26 0Z" fill="#FFAF23" p-id="4054"></path><path d="M877.7 674m-13 0a13 13 0 1 0 26 0 13 13 0 1 0-26 0Z" fill="#FFAF23" p-id="4055"></path></svg>